<?xml version="1.0" encoding="UTF-8"?>
<svg id="b" data-name="Calque 2" xmlns="http://www.w3.org/2000/svg" viewBox="0 0 584.25 138.43">
  <g id="c" data-name="Iconographie">
    <g>
      <g>
        <path d="m135.03,6.17h7.36v1.48h-5.57v4.54h5.15v1.46h-5.15v6.18h-1.78V6.17Z"/>
        <path d="m148.23,20.05c-2.63,0-4.7-1.95-4.7-5.05,0-3.28,2.17-5.21,4.86-5.21s4.72,2.05,4.72,5.03c0,3.65-2.53,5.23-4.86,5.23h-.02Zm.08-1.34c1.7,0,2.98-1.6,2.98-3.83,0-1.66-.83-3.75-2.94-3.75s-3,1.95-3,3.81c0,2.15,1.22,3.77,2.94,3.77h.02Z"/>
        <path d="m155.36,13.08c0-1.16-.02-2.15-.08-3.06h1.56l.08,1.92h.06c.45-1.32,1.54-2.15,2.74-2.15.18,0,.32.02.49.04v1.68c-.18-.02-.36-.04-.61-.04-1.26,0-2.15.95-2.39,2.27-.04.26-.06.55-.06.83v5.25h-1.78v-6.75Z"/>
        <path d="m162.07,12.67c0-1.03-.04-1.84-.08-2.65h1.56l.08,1.58h.06c.55-.93,1.46-1.8,3.1-1.8,1.32,0,2.33.81,2.76,1.96h.04c.3-.57.71-.97,1.11-1.28.59-.45,1.22-.69,2.15-.69,1.32,0,3.24.85,3.24,4.25v5.78h-1.74v-5.55c0-1.91-.71-3.02-2.13-3.02-1.03,0-1.8.75-2.13,1.6-.08.26-.14.59-.14.89v6.08h-1.74v-5.9c0-1.56-.69-2.67-2.05-2.67-1.09,0-1.92.89-2.21,1.78-.1.26-.14.57-.14.87v5.92h-1.74v-7.15Z"/>
        <path d="m185.88,17.48c0,.85.04,1.68.14,2.35h-1.6l-.16-1.24h-.06c-.53.77-1.6,1.46-3,1.46-1.99,0-3-1.4-3-2.82,0-2.37,2.11-3.67,5.9-3.65v-.2c0-.81-.22-2.29-2.23-2.27-.93,0-1.88.26-2.57.73l-.41-1.2c.81-.51,2.01-.85,3.24-.85,3.02,0,3.75,2.05,3.75,4.01v3.67Zm-1.74-2.65c-1.95-.04-4.15.3-4.15,2.21,0,1.17.77,1.7,1.66,1.7,1.3,0,2.13-.81,2.41-1.64.06-.18.08-.38.08-.57v-1.7Z"/>
        <path d="m190.81,7.67v2.35h2.55v1.36h-2.55v5.27c0,1.22.34,1.91,1.34,1.91.49,0,.77-.04,1.03-.12l.08,1.36c-.34.12-.89.24-1.58.24-.83,0-1.5-.28-1.93-.75-.49-.55-.69-1.42-.69-2.57v-5.33h-1.52v-1.36h1.52v-1.8l1.74-.55Z"/>
        <path d="m196.22,8.36c-.65,0-1.07-.51-1.07-1.09,0-.63.45-1.11,1.11-1.11s1.09.49,1.09,1.11c0,.59-.43,1.09-1.11,1.09h-.02Zm-.85,11.47v-9.81h1.78v9.81h-1.78Z"/>
        <path d="m204.1,20.05c-2.63,0-4.7-1.95-4.7-5.05,0-3.28,2.17-5.21,4.86-5.21s4.72,2.05,4.72,5.03c0,3.65-2.53,5.23-4.86,5.23h-.02Zm.08-1.34c1.7,0,2.98-1.6,2.98-3.83,0-1.66-.83-3.75-2.94-3.75s-3,1.95-3,3.81c0,2.15,1.22,3.77,2.94,3.77h.02Z"/>
        <path d="m211.24,12.67c0-1.03-.02-1.84-.08-2.65h1.58l.1,1.6h.04c.49-.91,1.62-1.82,3.24-1.82,1.36,0,3.47.81,3.47,4.17v5.86h-1.78v-5.65c0-1.58-.59-2.92-2.27-2.92-1.16,0-2.07.83-2.39,1.82-.08.22-.12.55-.12.83v5.92h-1.78v-7.15Z"/>
      </g>
      <g>
        <path d="m139.71,27.58v32.27h-4.21V27.58h4.21Z"/>
        <path d="m147.32,42.95c0-2.44-.05-4.36-.19-6.27h3.73l.24,3.78h.1c1.15-2.15,3.83-4.31,7.66-4.31,3.21,0,8.19,1.92,8.19,9.86v13.84h-4.21v-13.36c0-3.73-1.39-6.89-5.36-6.89-2.73,0-4.88,1.96-5.65,4.31-.19.53-.29,1.29-.29,1.96v13.98h-4.21v-16.9Z"/>
        <path d="m178.78,31.12v5.55h6.03v3.21h-6.03v12.45c0,2.87.81,4.5,3.16,4.5,1.15,0,1.82-.1,2.44-.29l.19,3.21c-.81.29-2.11.57-3.73.57-1.96,0-3.54-.67-4.55-1.77-1.15-1.29-1.63-3.35-1.63-6.08v-12.59h-3.59v-3.21h3.59v-4.26l4.12-1.29Z"/>
        <path d="m189.55,43.9c0-2.73-.05-5.08-.19-7.23h3.69l.19,4.55h.14c1.05-3.11,3.64-5.08,6.46-5.08.43,0,.77.05,1.15.1v3.97c-.43-.05-.86-.1-1.44-.1-2.97,0-5.08,2.25-5.65,5.36-.1.62-.14,1.29-.14,1.96v12.4h-4.21v-15.94Z"/>
        <path d="m214.16,60.38c-6.22,0-11.11-4.6-11.11-11.92,0-7.76,5.12-12.31,11.49-12.31s11.16,4.84,11.16,11.87c0,8.62-5.99,12.35-11.49,12.35h-.05Zm.19-3.16c4.02,0,7.04-3.78,7.04-9.05,0-3.93-1.96-8.86-6.94-8.86s-7.09,4.6-7.09,9c0,5.08,2.87,8.91,6.94,8.91h.05Z"/>
        <path d="m251.02,25.85v28.01c0,2.06.05,4.41.19,5.99h-3.78l-.19-4.02h-.1c-1.29,2.59-4.07,4.55-7.85,4.55-5.6,0-9.96-4.74-9.96-11.78-.05-7.76,4.79-12.45,10.39-12.45,3.59,0,5.99,1.68,6.99,3.5h.1v-13.79h4.21Zm-4.21,20.25c0-.57-.05-1.25-.19-1.82-.62-2.63-2.92-4.84-6.08-4.84-4.36,0-6.94,3.83-6.94,8.91,0,4.74,2.35,8.62,6.85,8.62,2.83,0,5.41-1.92,6.18-5.08.14-.53.19-1.1.19-1.77v-4.02Z"/>
        <path d="m277.4,53.48c0,2.44.05,4.55.19,6.37h-3.73l-.24-3.78h-.1c-1.05,1.87-3.54,4.31-7.66,4.31-3.64,0-8-2.06-8-10.15v-13.55h4.21v12.78c0,4.41,1.39,7.42,5.17,7.42,2.82,0,4.79-1.96,5.55-3.88.24-.58.38-1.34.38-2.16v-14.17h4.21v16.81Z"/>
        <path d="m300.91,58.99c-1.1.53-3.54,1.34-6.66,1.34-6.99,0-11.54-4.74-11.54-11.83s4.88-12.35,12.45-12.35c2.49,0,4.69.62,5.84,1.24l-.96,3.21c-1.01-.53-2.59-1.1-4.88-1.1-5.31,0-8.19,3.97-8.19,8.76,0,5.36,3.45,8.67,8.04,8.67,2.39,0,3.97-.57,5.17-1.1l.72,3.16Z"/>
        <path d="m311.53,31.12v5.55h6.03v3.21h-6.03v12.45c0,2.87.81,4.5,3.16,4.5,1.15,0,1.82-.1,2.44-.29l.19,3.21c-.81.29-2.11.57-3.73.57-1.96,0-3.54-.67-4.55-1.77-1.15-1.29-1.63-3.35-1.63-6.08v-12.59h-3.59v-3.21h3.59v-4.26l4.12-1.29Z"/>
        <path d="m324.31,32.75c-1.53,0-2.54-1.2-2.54-2.58,0-1.48,1.05-2.63,2.63-2.63s2.59,1.15,2.59,2.63c0,1.39-1.01,2.58-2.63,2.58h-.05Zm-2.01,27.1v-23.17h4.21v23.17h-4.21Z"/>
        <path d="m342.94,60.38c-6.22,0-11.11-4.6-11.11-11.92,0-7.76,5.12-12.31,11.49-12.31s11.16,4.84,11.16,11.87c0,8.62-5.99,12.35-11.49,12.35h-.05Zm.19-3.16c4.02,0,7.04-3.78,7.04-9.05,0-3.93-1.96-8.86-6.94-8.86s-7.09,4.6-7.09,9c0,5.08,2.87,8.91,6.94,8.91h.05Z"/>
        <path d="m359.79,42.95c0-2.44-.05-4.36-.19-6.27h3.73l.24,3.78h.1c1.15-2.15,3.83-4.31,7.66-4.31,3.21,0,8.19,1.92,8.19,9.86v13.84h-4.21v-13.36c0-3.73-1.39-6.89-5.36-6.89-2.73,0-4.88,1.96-5.65,4.31-.19.53-.29,1.29-.29,1.96v13.98h-4.21v-16.9Z"/>
      </g>
      <g>
        <path d="m399.85,57.28c0,.85.04,1.68.14,2.35h-1.6l-.16-1.24h-.06c-.53.77-1.6,1.46-3,1.46-1.99,0-3-1.4-3-2.82,0-2.37,2.11-3.67,5.9-3.65v-.2c0-.81-.22-2.29-2.23-2.27-.93,0-1.88.26-2.57.73l-.41-1.2c.81-.51,2.01-.85,3.24-.85,3.02,0,3.75,2.05,3.75,4.01v3.67Zm-1.74-2.65c-1.95-.04-4.15.3-4.15,2.21,0,1.17.77,1.7,1.66,1.7,1.3,0,2.13-.81,2.41-1.64.06-.18.08-.38.08-.57v-1.7Z"/>
        <path d="m410.92,56.93c0,1.03.02,1.92.08,2.7h-1.58l-.1-1.6h-.04c-.45.79-1.5,1.82-3.24,1.82-1.54,0-3.38-.87-3.38-4.3v-5.73h1.78v5.41c0,1.86.59,3.14,2.19,3.14,1.2,0,2.03-.83,2.35-1.64.1-.24.16-.57.16-.91v-6h1.78v7.11Z"/>
      </g>
      <g>
        <path d="m135.91,70.66c4-.59,8.67-1.04,13.78-1.04,9.26,0,15.85,2.15,20.22,6.22,4.52,4.07,7.11,9.85,7.11,17.92s-2.59,14.81-7.18,19.41c-4.74,4.67-12.44,7.18-22.15,7.18-4.67,0-8.44-.15-11.78-.59v-49.11Zm6.52,44.22c1.63.3,4,.3,6.52.3,13.78.07,21.26-7.7,21.26-21.18.07-11.78-6.59-19.26-20.22-19.26-3.33,0-5.85.3-7.55.67v39.48Z" style="fill: #e12229;"/>
        <path d="m189.09,103.17c.15,8.74,5.7,12.37,12.22,12.37,4.67,0,7.55-.81,9.92-1.85l1.19,4.67c-2.3,1.04-6.3,2.3-12,2.3-10.96,0-17.63-7.33-17.63-18.07s6.44-19.33,16.89-19.33c11.7,0,14.74,10.3,14.74,16.89,0,1.33-.07,2.3-.22,3.04h-25.11Zm19.03-4.67c.07-4.15-1.7-10.59-8.96-10.59-6.67,0-9.48,6.07-10,10.59h18.96Z" style="fill: #e12229;"/>
        <path d="m226.2,103.17c.15,8.74,5.7,12.37,12.22,12.37,4.67,0,7.55-.81,9.92-1.85l1.19,4.67c-2.3,1.04-6.3,2.3-12,2.3-10.96,0-17.63-7.33-17.63-18.07s6.44-19.33,16.89-19.33c11.7,0,14.74,10.3,14.74,16.89,0,1.33-.07,2.3-.22,3.04h-25.11Zm19.03-4.67c.07-4.15-1.7-10.59-8.96-10.59-6.67,0-9.48,6.07-10,10.59h18.96Z" style="fill: #e12229;"/>
        <path d="m259.6,95.76c0-4.59-.07-8.3-.3-11.7h5.85l.37,6.15h.15c2.59-4.44,6.89-6.96,12.67-6.96,8.74,0,15.26,7.33,15.26,18.22,0,12.89-7.93,19.26-16.29,19.26-4.81,0-8.89-2.07-11.04-5.63h-.15v19.48h-6.52v-38.81Zm6.52,9.55c0,.89.07,1.85.3,2.67,1.11,4.52,5.11,7.63,9.7,7.63,6.89,0,10.89-5.63,10.89-13.85,0-7.18-3.7-13.33-10.59-13.33-4.44,0-8.67,3.11-9.92,8.07-.15.82-.37,1.78-.37,2.59v6.22Z" style="fill: #e12229;"/>
        <path d="m317.6,69.99h6.52v44.51h21.33v5.41h-27.85v-49.92Z" style="fill: #e12229;"/>
        <path d="m355.08,103.17c.15,8.74,5.7,12.37,12.22,12.37,4.67,0,7.55-.81,9.92-1.85l1.19,4.67c-2.3,1.04-6.3,2.3-12,2.3-10.96,0-17.63-7.33-17.63-18.07s6.44-19.33,16.89-19.33c11.7,0,14.74,10.3,14.74,16.89,0,1.33-.07,2.3-.22,3.04h-25.11Zm19.03-4.67c.07-4.15-1.7-10.59-8.96-10.59-6.67,0-9.48,6.07-10,10.59h18.96Z" style="fill: #e12229;"/>
        <path d="m413.74,111.32c0,3.11.15,6.15.52,8.59h-5.85l-.59-4.52h-.22c-1.93,2.81-5.85,5.33-10.96,5.33-7.26,0-10.96-5.11-10.96-10.29,0-8.67,7.7-13.41,21.55-13.33v-.74c0-2.96-.81-8.37-8.15-8.3-3.41,0-6.89.96-9.41,2.67l-1.48-4.37c2.96-1.85,7.33-3.11,11.85-3.11,11.04,0,13.7,7.48,13.7,14.67v13.41Zm-6.37-9.7c-7.11-.15-15.18,1.11-15.18,8.07,0,4.3,2.81,6.22,6.07,6.22,4.74,0,7.78-2.96,8.81-6,.22-.67.3-1.41.3-2.07v-6.22Z" style="fill: #e12229;"/>
        <path d="m424.18,95.25c0-4.22-.07-7.85-.3-11.18h5.7l.3,7.04h.22c1.63-4.81,5.63-7.85,10-7.85.67,0,1.19.07,1.78.15v6.15c-.67-.07-1.33-.15-2.22-.15-4.59,0-7.85,3.48-8.74,8.3-.15.96-.22,2-.22,3.04v19.18h-6.52v-24.66Z" style="fill: #e12229;"/>
        <path d="m448.7,93.76c0-3.78-.07-6.74-.3-9.7h5.78l.37,5.85h.15c1.78-3.33,5.93-6.67,11.85-6.67,4.96,0,12.67,2.96,12.67,15.26v21.41h-6.52v-20.66c0-5.78-2.15-10.67-8.3-10.67-4.22,0-7.55,3.04-8.74,6.67-.3.81-.44,2-.44,3.04v21.63h-6.52v-26.15Z" style="fill: #e12229;"/>
        <path d="m492.92,77.99c-2.37,0-3.93-1.85-3.93-4,0-2.3,1.63-4.07,4.07-4.07s4,1.78,4,4.07c0,2.15-1.56,4-4.07,4h-.07Zm-3.11,41.92v-35.85h6.52v35.85h-6.52Z" style="fill: #e12229;"/>
        <path d="m507.14,93.76c0-3.78-.07-6.74-.3-9.7h5.78l.37,5.85h.15c1.78-3.33,5.93-6.67,11.85-6.67,4.96,0,12.67,2.96,12.67,15.26v21.41h-6.52v-20.66c0-5.78-2.15-10.67-8.3-10.67-4.22,0-7.55,3.04-8.74,6.67-.3.81-.44,2-.44,3.04v21.63h-6.52v-26.15Z" style="fill: #e12229;"/>
        <path d="m578.91,114.65c0,8.3-1.7,13.26-5.11,16.44-3.56,3.19-8.59,4.3-13.11,4.3s-9.04-1.04-11.92-2.96l1.63-5.04c2.37,1.56,6.07,2.89,10.52,2.89,6.67,0,11.55-3.48,11.55-12.59v-3.93h-.15c-1.93,3.33-5.85,6-11.41,6-8.89,0-15.26-7.55-15.26-17.55,0-12.15,7.93-18.96,16.22-18.96,6.22,0,9.55,3.19,11.18,6.22h.15l.22-5.41h5.78c-.22,2.52-.3,5.48-.3,9.78v20.81Zm-6.52-16.52c0-1.04-.07-2-.37-2.89-1.19-3.85-4.3-6.96-9.11-6.96-6.22,0-10.67,5.26-10.67,13.63,0,6.96,3.63,12.89,10.59,12.89,4.07,0,7.7-2.52,9.04-6.74.37-1.04.52-2.3.52-3.48v-6.44Z" style="fill: #e12229;"/>
      </g>
      <g>
        <path d="m4.22,91.6h14.1v1.69H6.26v11.35h11.1v1.69H6.26v13.81h-2.03v-28.55Z" style="fill: #808184;"/>
        <path d="m25.83,91.6v28.55h-2.03v-28.55h2.03Z" style="fill: #808184;"/>
        <path d="m32.74,92.02c2.2-.38,4.62-.64,7.33-.64,5.21,0,9.15,1.4,11.52,3.9,2.29,2.37,3.56,5.59,3.56,9.91s-1.14,7.96-3.73,10.8c-2.5,2.75-6.82,4.36-12.33,4.36-2.2,0-4.28-.04-6.35-.25v-28.08Zm2.03,26.43c1.14.17,2.8.21,4.62.21,9.15,0,13.68-5.13,13.68-13.39.08-7.24-3.94-12.2-13.13-12.2-2.2,0-3.94.21-5.17.47v24.91Z" style="fill: #808184;"/>
        <path d="m60.14,91.6h2.03v26.86h12.71v1.69h-14.74v-28.55Z" style="fill: #808184;"/>
        <path d="m92.55,105.96h-11.39v12.5h12.75v1.69h-14.78v-28.55h14.1v1.69h-12.07v10.97h11.39v1.69Z" style="fill: #808184;"/>
      </g>
      <line x1="114.45" x2="114.45" y2="119.25" style="fill: none; stroke: #cfd1d3; stroke-miterlimit: 10; stroke-width: .27px;"/>
      <g>
        <g>
          <path d="m52.17,64.26c-5.78,1.58-7.72,1.5-8.31,1.36.44-.88,2.49-2.83,4.66-4.37.51-.36.63-1.08.28-1.6-.36-.52-1.06-.65-1.57-.29-3.05,2.17-6.48,5.2-5.53,7.29.36.8,1.12,1.33,2.95,1.32,1.66,0,4.2-.43,8.11-1.5.6-.16.96-.79.8-1.41-.16-.61-.78-.98-1.38-.81Z" style="fill: none;"/>
          <path d="m65.24,12.15c1.09.61,3.39-.72,4.78,1.27.72,1.03-1.52-4.68-2.61-5.3s-2.46-.21-3.06.9c-.6,1.11-.2,2.51.89,3.12Z" style="fill: #e12229;"/>
          <path d="m62.93,51.09c-.47-.56-.4-1.4.15-1.87.55-.48,1.37-.41,1.84.15,6.85,8.19,17.96,10.38,29.02,5.72,1.13-3.15,1.68-6.45,1.76-9.68,0-8.77-4.17-16.87-11.27-21.75-3.29-2.26-10.89-5.27-20.85-3.59-7.33,1.24-14.92,6.89-17.89,9.43-1.79,1.53-23.07,22.11-31.95,18.01-6.01-2.78,4.72-12.88-.2-22.11-.13-.25-.49-.27-.65-.04-2.5,3.45-4.95,7.58-8.29,5.72-1.49-.83-2.83-3.48-3.86-5.16-.21-.34-.73-.17-.71.23.38,11.59,5.88,20.13,10.31,25.53,7.65,9.34,21.07,20.22,42.74,22.43,22.34,2.07,34.24-5.6,39.41-15.63-3.36,1.13-6.71,1.7-9.94,1.7-7.63,0-14.61-3.11-19.6-9.08Zm-10.17,15.39c-3.91,1.07-6.45,1.5-8.11,1.5-1.83,0-2.59-.53-2.95-1.32-.95-2.09,2.48-5.12,5.53-7.29.51-.36,1.21-.23,1.57.29.36.52.23,1.24-.28,1.6-2.16,1.54-4.22,3.48-4.66,4.37.6.13,2.53.21,8.31-1.36.6-.16,1.22.2,1.38.81.16.61-.19,1.25-.8,1.41Z" style="fill: #e12229;"/>
          <path d="m73.23,16.86c1.39-1.99,3.69-2.95,4.78-3.57,1.09-.61,1.49-2.01.89-3.12-.6-1.11-1.99-1.55-3.06-.9-2.81,1.68-3.33,8.63-2.61,7.59Z" style="fill: #e12229;"/>
          <path d="m72.79,6.9c.5-1.55,1.75-2.69,2.31-3.32.57-.63.55-1.59-.04-2.13-.58-.54-1.53-.48-2.08.17-1.44,1.7-.45,6.09-.2,5.29Z" style="fill: #e12229;"/>
        </g>
        <g>
          <ellipse cx="78.85" cy="42.99" rx="4.17" ry="4.59" style="fill: #fff;"/>
          <ellipse cx="80.53" cy="44.01" rx="2.81" ry="2.87" style="fill: #e12229;"/>
        </g>
      </g>
    </g>
  </g>
</svg>