<?xml version="1.0" encoding="UTF-8"?>
<svg xmlns="http://www.w3.org/2000/svg" xmlns:xlink="http://www.w3.org/1999/xlink" viewBox="0 0 125.8 125.8">
  <defs>
    <style>
      .k {
        fill: #fff;
      }

      .l {
        fill: url(#h);
      }

      .m {
        fill: none;
      }

      .n {
        fill: #ee4c2c;
      }

      .o {
        fill: url(#j);
      }

      .p {
        clip-path: url(#i);
      }

      .q {
        fill: #e12229;
      }

      .r {
        clip-path: url(#g);
      }
    </style>
    <clipPath id="g">
      <polygon points="62.24 20.43 36.46 5.76 36.46 66.03 46.77 60.07 46.77 43.12 54.56 47.58 54.45 36.01 46.77 31.54 46.77 24.78 62.24 33.83 62.24 20.43" style="fill: none;"/>
    </clipPath>
    <linearGradient id="h" data-name="Dégradé sans nom 2" x1="5.98" y1="-5330.53" x2="69.23" y2="-5330.53" gradientTransform="translate(0 -5294.69) scale(1 -1)" gradientUnits="userSpaceOnUse">
      <stop offset="0" stop-color="#ff6f00"/>
      <stop offset="1" stop-color="#ffa800"/>
    </linearGradient>
    <clipPath id="i">
      <polygon points="8.39 20.43 34.17 5.76 34.17 66.03 23.86 60.07 23.86 24.78 8.39 33.83 8.39 20.43" style="fill: none;"/>
    </clipPath>
    <linearGradient id="j" data-name="Dégradé sans nom 2" x1="5.64" x2="68.89" xlink:href="#h"/>
  </defs>
  <g id="a" data-name="Calque 1"/>
  <g id="b" data-name="Calque 2">
    <g id="c" data-name="Iconographie">
      <g>
        <rect width="125.8" height="125.8" style="fill: #fff;"/>
        <g>
          <g id="d" data-name="group">
            <path id="e" data-name="Path" d="M110.22,22.14l-4.44,4.44c7.27,7.27,7.27,18.97,0,26.1-7.27,7.27-18.97,7.27-26.1,0-7.27-7.27-7.27-18.97,0-26.1l11.5-11.5,1.61-1.61V4.78l-17.36,17.36c-9.69,9.69-9.69,25.3,0,34.99,9.69,9.69,25.3,9.69,34.78,0,9.69-9.76,9.69-25.3,0-34.99Z" style="fill: #ee4c2c;"/>
            <path id="f" data-name="Path-1" d="M104.77,17.83c0,1.78-1.45,3.23-3.23,3.23s-3.23-1.45-3.23-3.23,1.45-3.23,3.23-3.23,3.23,1.45,3.23,3.23Z" style="fill: #ee4c2c;"/>
          </g>
          <g>
            <g style="clip-path: url(#g);">
              <path d="M5.98,5.53h63.25v60.62H5.98V5.53Z" style="fill: url(#h);"/>
            </g>
            <g style="clip-path: url(#i);">
              <path d="M5.64,5.53h63.25v60.62H5.64V5.53Z" style="fill: url(#j);"/>
            </g>
          </g>
          <g>
            <path d="M96.62,104.09c4.29-.4,7.17-1.94,9.48-3.18,1.58-.85,2.9-1.55,4.24-1.66,.76-2.49,1.18-5.09,1.18-7.73,0-8.79-4.27-16.92-11.53-21.81-3.37-2.27-11.13-5.29-21.33-3.6-7.49,1.24-15.26,6.91-18.3,9.45-1.83,1.53-23.6,22.17-32.68,18.06-6.14-2.78,4.83-12.91-.21-22.17-.14-.25-.5-.28-.67-.04-2.56,3.46-5.06,7.6-8.47,5.74-1.52-.83-2.89-3.49-3.95-5.17-.21-.34-.74-.17-.73,.23,.39,11.62,6.02,20.18,10.54,25.6,7.83,9.37,21.55,20.28,43.72,22.49,9.6,.96,32.37-2.07,41.47-18.44-.65,.26-1.37,.65-2.19,1.09-2.36,1.27-5.59,3-10.35,3.44-.32,.03-.63,.04-.95,.04-4.33,0-8.36-2.63-10.32-4.14-.15,.04-.3,.06-.46,.06-1.07,0-1.94-.87-1.94-1.94s.87-1.94,1.94-1.94,1.94,.87,1.94,1.94c0,.03,0,.06,0,.09,1.87,1.43,5.77,3.95,9.59,3.58Zm-29.02,8.57c-4,1.07-6.6,1.51-8.29,1.51-1.87,0-2.65-.53-3.02-1.33-.98-2.1,2.54-5.13,5.66-7.31,.52-.36,1.24-.23,1.61,.29,.36,.52,.24,1.24-.29,1.61-2.21,1.54-4.32,3.49-4.76,4.38,.61,.13,2.59,.22,8.5-1.37,.62-.17,1.25,.2,1.41,.82,.17,.62-.2,1.25-.81,1.41Zm26.71-28.1c2.28,0,4.12,1.88,4.27,4.24-.48-.92-1.43-1.56-2.55-1.56-1.59,0-2.88,1.29-2.88,2.88s1.29,2.88,2.88,2.88c.18,0,.36-.02,.53-.05-.66,.43-1.43,.7-2.26,.7-2.37,0-4.31-2.04-4.31-4.54,0-2.51,1.93-4.54,4.31-4.54Z" style="fill: #e12229;"/>
            <g>
              <path d="M85.39,60.57c-.55,0-.84-.41-.94-.54-.38-.54-.84-.73-1.69-.73-.25,0-.49,.02-.72,.03-.26,.02-.51,.03-.74,.03-.37,0-.92-.03-1.41-.3-1.6-.88-2.18-2.89-1.3-4.49,.58-1.06,1.69-1.71,2.9-1.71,.56,0,1.11,.14,1.59,.41,1.21,.67,3.53,5.61,3.29,6.54l-.19,.75-.79,.02Z" style="fill: #e12229;"/>
              <path d="M81.49,53.85c.38,0,.76,.09,1.11,.29,1.02,.56,3.04,5.43,2.79,5.43-.02,0-.06-.04-.12-.12-.7-.97-1.61-1.15-2.5-1.15-.52,0-1.02,.06-1.46,.06-.36,0-.67-.04-.93-.18-1.11-.61-1.52-2.02-.91-3.13,.42-.76,1.21-1.19,2.02-1.19m0-2c-1.57,0-3.02,.85-3.77,2.23-1.15,2.08-.39,4.7,1.69,5.85,.7,.38,1.41,.43,1.89,.43,.25,0,.52-.02,.8-.03,.21-.01,.44-.03,.66-.03,.65,0,.74,.13,.87,.32,.57,.79,1.27,.96,1.75,.96h1.55l.4-1.52c.12-.46,.27-1.03-1.13-3.98-1.26-2.65-2.04-3.35-2.65-3.68-.64-.35-1.35-.54-2.08-.54h0Z" style="fill: #fff;"/>
            </g>
            <g>
              <path d="M88.42,64.01c-.39,0-.9-.24-1.08-.9-.37-1.36,.54-7.02,3.38-8.69,.49-.29,1.04-.44,1.61-.44,1.2,0,2.32,.66,2.9,1.72,.43,.77,.53,1.67,.28,2.51-.25,.85-.81,1.55-1.58,1.98-.18,.1-.4,.21-.63,.33-1.14,.58-2.87,1.47-3.93,2.95-.33,.46-.73,.52-.95,.52h0Z" style="fill: #e12229;"/>
              <path d="M92.32,54.99c.81,0,1.61,.44,2.03,1.21,.62,1.11,.21,2.52-.91,3.13-1.12,.61-3.47,1.58-4.89,3.58-.05,.07-.1,.1-.13,.1-.52,0,.12-6.15,2.8-7.72,.35-.2,.73-.3,1.11-.3m0-2c-.74,0-1.48,.2-2.12,.58-3.4,2-4.29,8.13-3.83,9.81,.31,1.13,1.25,1.63,2.05,1.63,.69,0,1.33-.34,1.76-.94,.92-1.28,2.45-2.07,3.57-2.64,.25-.13,.47-.24,.66-.35,1.01-.56,1.74-1.47,2.06-2.58,.32-1.11,.19-2.27-.37-3.28-.76-1.38-2.21-2.24-3.78-2.24h0Z" style="fill: #fff;"/>
            </g>
            <g>
              <path d="M88.02,54.01c-.26,0-.75-.1-1.05-.75-.41-.89-1.01-4.47,.57-6.3,.48-.56,1.18-.88,1.92-.88,.61,0,1.2,.22,1.64,.63,1,.91,1.05,2.5,.1,3.55-.1,.11-.21,.22-.34,.36-.58,.6-1.46,1.52-1.82,2.61-.19,.58-.67,.79-1.03,.79h0Z" style="fill: #e12229;"/>
              <path d="M89.46,47.08c.35,0,.7,.12,.97,.37,.6,.54,.62,1.5,.04,2.14-.58,.64-1.86,1.77-2.37,3.33-.02,.07-.05,.1-.08,.1-.33,0-1.07-3.84,.28-5.4,.31-.36,.74-.54,1.16-.54m0-2c-1.03,0-2,.45-2.68,1.23-1.88,2.18-1.28,6.15-.72,7.37,.57,1.24,1.64,1.34,1.96,1.34,.91,0,1.69-.58,1.98-1.48,.28-.87,1.04-1.66,1.59-2.23,.13-.14,.26-.27,.36-.38,.62-.69,.96-1.57,.94-2.48-.02-.95-.42-1.85-1.11-2.48-.63-.57-1.45-.89-2.31-.89h0Z" style="fill: #fff;"/>
            </g>
          </g>
        </g>
      </g>
    </g>
  </g>
</svg>